<svg width="43" height="43" viewBox="0 0 43 43" fill="none" xmlns="http://www.w3.org/2000/svg">
<g filter="url(#filter0_b_2325_6131)">
<rect x="1" y="1" width="41" height="41" rx="20.5" fill="white" fill-opacity="0.2"/>
<rect x="0.5" y="0.5" width="42" height="42" rx="21" stroke="white"/>
<mask id="path-3-inside-1_2325_6131" fill="white">
<path fill-rule="evenodd" clip-rule="evenodd" d="M21 34.5C28.1797 34.5 34 28.6797 34 21.5C34 14.3203 28.1797 8.5 21 8.5C13.8203 8.5 8 14.3203 8 21.5C8 28.6797 13.8203 34.5 21 34.5Z"/>
</mask>
<path d="M33 21.5C33 28.1274 27.6274 33.5 21 33.5V35.5C28.732 35.5 35 29.232 35 21.5H33ZM21 9.5C27.6274 9.5 33 14.8726 33 21.5H35C35 13.768 28.732 7.5 21 7.5V9.5ZM9 21.5C9 14.8726 14.3726 9.5 21 9.5V7.5C13.268 7.5 7 13.768 7 21.5H9ZM21 33.5C14.3726 33.5 9 28.1274 9 21.5H7C7 29.232 13.268 35.5 21 35.5V33.5Z" fill="white" mask="url(#path-3-inside-1_2325_6131)"/>
</g>
<defs>
<filter id="filter0_b_2325_6131" x="-54" y="-54" width="151" height="151" filterUnits="userSpaceOnUse" color-interpolation-filters="sRGB">
<feFlood flood-opacity="0" result="BackgroundImageFix"/>
<feGaussianBlur in="BackgroundImageFix" stdDeviation="27"/>
<feComposite in2="SourceAlpha" operator="in" result="effect1_backgroundBlur_2325_6131"/>
<feBlend mode="normal" in="SourceGraphic" in2="effect1_backgroundBlur_2325_6131" result="shape"/>
</filter>
</defs>
</svg>
